<svg width="211" height="36" viewBox="0 0 211 36" fill="none" xmlns="http://www.w3.org/2000/svg">
<mask id="mask0_17_121" style="mask-type:luminance" maskUnits="userSpaceOnUse" x="0" y="0" width="18" height="36">
<path d="M0 0H17.0062V36H0V0Z" fill="white"/>
</mask>
<g mask="url(#mask0_17_121)">
<path d="M12.4599 0.836113C5.22893 3.16537 0 9.94861 0 17.954C0 25.9594 5.22893 32.7426 12.4599 35.0719C13.8202 35.5117 15.2547 35.7929 16.7351 35.8952V23.3361L13.7256 20.0915L12.4599 18.7313L11.7389 17.954L12.4599 17.1793L13.7231 15.8165L16.7351 12.5719V0.0128174C15.2547 0.11509 13.8202 0.39634 12.4599 0.836113ZM12.4599 25.0159V30.2728C8.38163 28.4421 5.37723 24.6478 4.65362 20.0915H7.88814L8.82142 21.0963L12.4599 25.0159ZM12.4599 10.8921L8.82142 14.8117L7.88814 15.8165H4.65362C5.37723 11.2603 8.38163 7.46594 12.4599 5.63526V10.8921Z" fill="#60A5FA"/>
</g>
<mask id="mask1_17_121" style="mask-type:luminance" maskUnits="userSpaceOnUse" x="17" y="0" width="17" height="36">
<path d="M17.0061 0H33.0662V36H17.0061V0Z" fill="white"/>
</mask>
<g mask="url(#mask1_17_121)">
<path d="M29.4381 19.4113L27.8886 17.9539L29.4381 16.4991L30.1643 15.8164L33.2786 12.8914C32.849 11.4162 32.2328 10.0227 31.4606 8.73149C29.2847 5.0957 25.8584 2.29087 21.7775 0.912742C20.4172 0.455071 18.9828 0.153367 17.4998 0.0306396V35.8772C18.9828 35.7571 20.4172 35.4554 21.7775 34.9951C25.8584 33.617 29.2847 30.8122 31.4606 27.1764C32.2328 25.8852 32.849 24.4917 33.2786 23.019L30.1643 20.0914L29.4381 19.4113ZM21.7775 5.74257C24.5058 7.03377 26.7328 9.20962 28.0855 11.9019L24.764 15.0213L23.9177 15.8164H21.7775V5.74257ZM21.7775 30.1653V20.0914H23.9177L24.764 20.8866L28.0855 24.0059C26.7328 26.6983 24.5058 28.8767 21.7775 30.1653Z" fill="#FB923C"/>
</g>
<path d="M43.1302 30.656C43.1142 30.48 43.1062 30.288 43.1062 30.08C43.1062 29.872 43.1062 29.632 43.1062 29.36C43.1062 28.672 43.1222 27.856 43.1542 26.912C43.1862 25.952 43.2342 24.936 43.2982 23.864C43.3622 22.776 43.4262 21.688 43.4902 20.6C43.5542 19.496 43.6182 18.44 43.6822 17.432C43.7622 16.424 43.8342 15.52 43.8982 14.72C43.5462 14.832 43.2342 14.936 42.9622 15.032L42.3382 11C44.1462 10.488 45.8262 10.104 47.3782 9.848C48.9462 9.592 50.3622 9.464 51.6262 9.464C54.2022 9.464 56.1702 9.952 57.5302 10.928C58.8902 11.904 59.5702 13.32 59.5702 15.176C59.5702 16.232 59.3382 17.12 58.8742 17.84C58.4102 18.544 57.7542 19.128 56.9062 19.592C58.9862 20.648 60.0262 22.368 60.0262 24.752C60.0262 25.808 59.8262 26.696 59.4262 27.416C59.0422 28.12 58.5462 28.688 57.9382 29.12C57.3302 29.552 56.6822 29.872 55.9942 30.08C55.3222 30.304 54.6822 30.448 54.0742 30.512C53.4822 30.592 53.0182 30.632 52.6822 30.632C51.8502 30.632 50.9622 30.552 50.0182 30.392C49.0742 30.232 48.1542 29.992 47.2582 29.672C47.2582 29.992 47.2582 30.296 47.2582 30.584L43.1302 30.656ZM51.7222 13.472C51.1462 13.472 50.5382 13.504 49.8982 13.568C49.2742 13.616 48.6502 13.696 48.0262 13.808C47.9302 14.976 47.8342 16.336 47.7382 17.888C47.9462 17.904 48.1542 17.912 48.3622 17.912C48.5862 17.912 48.8102 17.912 49.0342 17.912C53.2582 17.912 55.3702 17.048 55.3702 15.32C55.3702 14.744 55.0422 14.296 54.3862 13.976C53.7462 13.64 52.8582 13.472 51.7222 13.472ZM49.5862 21.704C49.2502 21.704 48.9062 21.704 48.5542 21.704C48.2182 21.704 47.8742 21.712 47.5222 21.728C47.4902 22.432 47.4582 23.136 47.4262 23.84C47.4102 24.544 47.3862 25.24 47.3542 25.928C48.2502 26.2 49.1302 26.4 49.9942 26.528C50.8582 26.64 51.6022 26.696 52.2262 26.696C53.5542 26.696 54.5062 26.536 55.0822 26.216C55.6582 25.88 55.9462 25.336 55.9462 24.584C55.9462 23.656 55.3942 22.944 54.2902 22.448C53.2022 21.952 51.6342 21.704 49.5862 21.704ZM69.4584 30.92C67.9223 30.92 66.5703 30.616 65.4023 30.008C64.2503 29.416 63.3463 28.584 62.6903 27.512C62.0503 26.44 61.7303 25.2 61.7303 23.792C61.7303 22.944 61.8743 22.056 62.1623 21.128C62.4503 20.184 62.9143 19.304 63.5543 18.488C64.1943 17.672 65.0343 17.008 66.0743 16.496C67.1303 15.984 68.4103 15.728 69.9144 15.728C71.0023 15.728 71.9143 15.848 72.6503 16.088C73.4024 16.328 74.0104 16.64 74.4743 17.024C74.9544 17.408 75.3144 17.816 75.5544 18.248C75.8103 18.68 75.9783 19.096 76.0583 19.496C76.1544 19.88 76.2024 20.2 76.2024 20.456C76.2024 22.008 75.5464 23.208 74.2344 24.056C72.9384 24.888 71.0984 25.304 68.7143 25.304C68.1704 25.304 67.6504 25.28 67.1543 25.232C66.6743 25.184 66.2263 25.128 65.8103 25.064C66.1143 25.864 66.6183 26.456 67.3223 26.84C68.0263 27.208 68.7543 27.392 69.5064 27.392C70.5944 27.392 71.5544 27.2 72.3864 26.816C73.2184 26.416 74.0024 25.808 74.7384 24.992L76.8744 28.064C76.3624 28.48 75.7864 28.912 75.1463 29.36C74.5224 29.808 73.7544 30.176 72.8424 30.464C71.9304 30.768 70.8024 30.92 69.4584 30.92ZM69.9863 19.328C69.0424 19.328 68.2104 19.568 67.4903 20.048C66.7703 20.528 66.2423 21.16 65.9063 21.944C66.3063 22.008 66.6983 22.064 67.0824 22.112C67.4824 22.144 67.8744 22.16 68.2583 22.16C68.6104 22.16 69.0104 22.128 69.4584 22.064C69.9223 22 70.3703 21.904 70.8024 21.776C71.2503 21.648 71.6184 21.488 71.9064 21.296C72.1944 21.088 72.3384 20.848 72.3384 20.576C72.3384 20.448 72.2744 20.288 72.1463 20.096C72.0184 19.904 71.7864 19.728 71.4504 19.568C71.1144 19.408 70.6264 19.328 69.9863 19.328ZM83.4138 30.896C82.5338 30.896 81.8058 30.704 81.2298 30.32C80.6698 29.952 80.2218 29.44 79.8858 28.784C79.5658 28.128 79.3258 27.376 79.1658 26.528C79.0218 25.68 78.9258 24.776 78.8778 23.816C78.8458 22.84 78.8298 21.864 78.8298 20.888C78.8298 20.04 78.8538 19.112 78.9018 18.104C78.9498 17.08 79.0058 16.048 79.0698 15.008C79.1498 13.952 79.2298 12.96 79.3098 12.032C79.4058 11.104 79.4938 10.296 79.5738 9.608L83.9178 9.656C83.7898 10.472 83.6698 11.4 83.5578 12.44C83.4458 13.464 83.3498 14.504 83.2698 15.56C83.2058 16.616 83.1498 17.592 83.1018 18.488C83.0698 19.384 83.0538 20.096 83.0538 20.624C83.0538 22.08 83.0778 23.224 83.1258 24.056C83.1898 24.888 83.2778 25.48 83.3898 25.832C83.5178 26.168 83.6858 26.336 83.8938 26.336C84.1658 26.336 84.4618 26.168 84.7818 25.832C85.1018 25.48 85.4138 25.088 85.7178 24.656L87.7578 28.712C87.2618 29.256 86.6698 29.752 85.9818 30.2C85.2938 30.664 84.4378 30.896 83.4138 30.896ZM89.7477 13.496C89.7477 13.352 89.7397 13.208 89.7237 13.064C89.7237 12.904 89.7237 12.728 89.7237 12.536C89.7237 12.024 89.7397 11.48 89.7717 10.904C89.8037 10.328 89.8357 9.84 89.8677 9.44L94.1397 9.512C94.0917 10.056 94.0357 10.672 93.9717 11.36C93.9237 12.048 93.8917 12.76 93.8757 13.496H89.7477ZM89.6517 30.68C89.6037 29.688 89.5717 28.632 89.5557 27.512C89.5397 26.376 89.5317 25.24 89.5317 24.104C89.5317 22.616 89.5477 21.168 89.5797 19.76C89.6117 18.352 89.6517 17.072 89.6997 15.92L93.8277 15.896C93.7637 16.632 93.7237 17.544 93.7077 18.632C93.6917 19.704 93.6837 20.832 93.6837 22.016C93.6837 23.184 93.6917 24.336 93.7077 25.472C93.7237 26.608 93.7397 27.64 93.7557 28.568C93.7877 29.48 93.8117 30.184 93.8277 30.68H89.6517Z" fill="#60A5FA"/>
<path d="M97.0598 30.656C97.0438 30.48 97.0358 30.288 97.0358 30.08C97.0358 29.872 97.0358 29.632 97.0358 29.36C97.0358 28.672 97.0518 27.856 97.0838 26.912C97.1158 25.952 97.1638 24.936 97.2278 23.864C97.2918 22.776 97.3558 21.688 97.4198 20.6C97.4838 19.496 97.5478 18.44 97.6118 17.432C97.6918 16.424 97.7638 15.52 97.8278 14.72C97.4758 14.832 97.1638 14.936 96.8918 15.032L96.2678 11C98.0758 10.488 99.7558 10.104 101.308 9.848C102.876 9.592 104.292 9.464 105.556 9.464C108.132 9.464 110.1 9.952 111.46 10.928C112.82 11.904 113.5 13.32 113.5 15.176C113.5 16.232 113.268 17.12 112.804 17.84C112.34 18.544 111.684 19.128 110.836 19.592C112.916 20.648 113.956 22.368 113.956 24.752C113.956 25.808 113.756 26.696 113.356 27.416C112.972 28.12 112.476 28.688 111.868 29.12C111.26 29.552 110.612 29.872 109.924 30.08C109.252 30.304 108.612 30.448 108.004 30.512C107.412 30.592 106.948 30.632 106.612 30.632C105.78 30.632 104.892 30.552 103.948 30.392C103.004 30.232 102.084 29.992 101.188 29.672C101.188 29.992 101.188 30.296 101.188 30.584L97.0598 30.656ZM105.652 13.472C105.076 13.472 104.468 13.504 103.828 13.568C103.204 13.616 102.58 13.696 101.956 13.808C101.86 14.976 101.764 16.336 101.668 17.888C101.876 17.904 102.084 17.912 102.292 17.912C102.516 17.912 102.74 17.912 102.964 17.912C107.188 17.912 109.3 17.048 109.3 15.32C109.3 14.744 108.972 14.296 108.316 13.976C107.676 13.64 106.788 13.472 105.652 13.472ZM103.516 21.704C103.18 21.704 102.836 21.704 102.484 21.704C102.148 21.704 101.804 21.712 101.452 21.728C101.42 22.432 101.388 23.136 101.356 23.84C101.34 24.544 101.316 25.24 101.284 25.928C102.18 26.2 103.06 26.4 103.924 26.528C104.788 26.64 105.532 26.696 106.156 26.696C107.484 26.696 108.436 26.536 109.012 26.216C109.588 25.88 109.876 25.336 109.876 24.584C109.876 23.656 109.324 22.944 108.22 22.448C107.132 21.952 105.564 21.704 103.516 21.704ZM123.388 30.92C121.852 30.92 120.5 30.616 119.332 30.008C118.18 29.416 117.276 28.584 116.62 27.512C115.98 26.44 115.66 25.2 115.66 23.792C115.66 22.944 115.804 22.056 116.092 21.128C116.38 20.184 116.844 19.304 117.484 18.488C118.124 17.672 118.964 17.008 120.004 16.496C121.06 15.984 122.34 15.728 123.844 15.728C124.932 15.728 125.844 15.848 126.58 16.088C127.332 16.328 127.94 16.64 128.404 17.024C128.884 17.408 129.244 17.816 129.484 18.248C129.74 18.68 129.908 19.096 129.988 19.496C130.084 19.88 130.132 20.2 130.132 20.456C130.132 22.008 129.476 23.208 128.164 24.056C126.868 24.888 125.028 25.304 122.644 25.304C122.1 25.304 121.58 25.28 121.084 25.232C120.604 25.184 120.156 25.128 119.74 25.064C120.044 25.864 120.548 26.456 121.252 26.84C121.956 27.208 122.684 27.392 123.436 27.392C124.524 27.392 125.484 27.2 126.316 26.816C127.148 26.416 127.932 25.808 128.668 24.992L130.804 28.064C130.292 28.48 129.716 28.912 129.076 29.36C128.452 29.808 127.684 30.176 126.772 30.464C125.86 30.768 124.732 30.92 123.388 30.92ZM123.916 19.328C122.972 19.328 122.14 19.568 121.42 20.048C120.7 20.528 120.172 21.16 119.836 21.944C120.236 22.008 120.628 22.064 121.012 22.112C121.412 22.144 121.804 22.16 122.188 22.16C122.54 22.16 122.94 22.128 123.388 22.064C123.852 22 124.3 21.904 124.732 21.776C125.18 21.648 125.548 21.488 125.836 21.296C126.124 21.088 126.268 20.848 126.268 20.576C126.268 20.448 126.204 20.288 126.076 20.096C125.948 19.904 125.716 19.728 125.38 19.568C125.044 19.408 124.556 19.328 123.916 19.328ZM132.831 30.752C132.767 29.984 132.711 29 132.663 27.8C132.631 26.6 132.615 25.296 132.615 23.888C132.615 22.64 132.623 21.352 132.639 20.024C132.671 18.696 132.711 17.392 132.759 16.112C132.823 14.816 132.887 13.608 132.951 12.488C133.031 11.352 133.119 10.36 133.215 9.512L137.391 9.8C137.167 11.432 136.991 13.088 136.863 14.768C136.751 16.432 136.679 18.128 136.647 19.856C137.543 19.232 138.583 18.576 139.767 17.888C140.967 17.184 142.407 16.392 144.087 15.512L146.343 19.28C144.615 19.824 143.087 20.448 141.759 21.152C140.431 21.84 139.343 22.536 138.495 23.24C138.335 23.352 138.231 23.432 138.183 23.48C138.135 23.528 138.111 23.56 138.111 23.576C138.111 23.672 138.375 23.848 138.903 24.104C139.607 24.472 140.335 24.832 141.087 25.184C141.839 25.536 142.679 25.896 143.607 26.264C144.535 26.616 145.599 26.992 146.799 27.392L145.143 30.944C143.687 30.512 142.231 29.968 140.775 29.312C139.319 28.656 137.999 27.992 136.815 27.32C136.831 27.864 136.855 28.416 136.887 28.976C136.935 29.536 136.975 30.096 137.007 30.656L132.831 30.752ZM153.828 30.896C152.628 30.896 151.54 30.584 150.564 29.96C149.588 29.352 148.812 28.528 148.236 27.488C147.676 26.432 147.396 25.256 147.396 23.96C147.396 22.744 147.62 21.648 148.068 20.672C148.516 19.68 149.124 18.832 149.892 18.128C150.676 17.424 151.564 16.888 152.556 16.52C153.548 16.136 154.588 15.944 155.676 15.944C156.588 15.944 157.484 16.072 158.364 16.328C158.428 15.992 158.484 15.656 158.532 15.32L162.636 16.016C162.524 16.32 162.412 16.776 162.3 17.384C162.188 17.992 162.092 18.672 162.012 19.424C161.948 20.176 161.892 20.928 161.844 21.68C161.796 22.432 161.772 23.112 161.772 23.72C161.772 24.216 161.804 24.704 161.868 25.184C161.948 25.648 162.108 26.032 162.348 26.336C162.588 26.624 162.956 26.768 163.452 26.768H163.788L163.188 30.944C162.132 30.944 161.26 30.76 160.572 30.392C159.884 30.04 159.332 29.56 158.916 28.952C158.228 29.72 157.444 30.232 156.564 30.488C155.684 30.76 154.772 30.896 153.828 30.896ZM151.332 24.44C151.412 25.208 151.724 25.824 152.268 26.288C152.828 26.736 153.532 26.96 154.38 26.96C155.196 26.96 155.876 26.744 156.42 26.312C156.964 25.864 157.412 25.256 157.764 24.488C157.748 24.232 157.74 23.968 157.74 23.696C157.74 23.136 157.756 22.56 157.788 21.968C157.82 21.376 157.86 20.792 157.908 20.216C157.236 19.96 156.532 19.832 155.796 19.832C154.932 19.832 154.156 20.008 153.468 20.36C152.796 20.696 152.268 21.168 151.884 21.776C151.5 22.384 151.308 23.088 151.308 23.888C151.308 23.984 151.308 24.08 151.308 24.176C151.308 24.272 151.316 24.36 151.332 24.44ZM172.344 30.992C171.256 30.992 170.248 30.864 169.32 30.608C168.392 30.352 167.552 30.024 166.8 29.624C166.048 29.224 165.376 28.8 164.784 28.352L166.944 24.872C167.616 25.496 168.264 25.976 168.888 26.312C169.512 26.648 170.16 26.88 170.832 27.008C171.52 27.136 172.264 27.2 173.064 27.2C173.752 27.2 174.304 27.112 174.72 26.936C175.136 26.744 175.344 26.504 175.344 26.216C175.344 25.976 175.144 25.792 174.744 25.664C174.344 25.52 173.832 25.4 173.208 25.304C172.584 25.192 171.928 25.056 171.24 24.896C170.264 24.64 169.352 24.344 168.504 24.008C167.656 23.672 166.968 23.216 166.44 22.64C165.928 22.064 165.672 21.296 165.672 20.336C165.672 19.568 165.856 18.896 166.224 18.32C166.592 17.728 167.08 17.24 167.688 16.856C168.312 16.456 169.016 16.16 169.8 15.968C170.584 15.776 171.392 15.68 172.224 15.68C173.664 15.68 174.904 15.856 175.944 16.208C177 16.544 178.008 16.992 178.968 17.552L176.784 20.864C176.304 20.528 175.752 20.24 175.128 20C174.52 19.744 173.904 19.552 173.28 19.424C172.672 19.28 172.104 19.208 171.576 19.208C171 19.208 170.544 19.296 170.208 19.472C169.888 19.648 169.728 19.896 169.728 20.216C169.728 20.408 169.928 20.592 170.328 20.768C170.744 20.928 171.528 21.144 172.68 21.416C173.368 21.576 174.096 21.744 174.864 21.92C175.632 22.08 176.352 22.312 177.024 22.616C177.712 22.904 178.264 23.328 178.68 23.888C179.112 24.432 179.328 25.16 179.328 26.072C179.328 27.608 178.712 28.808 177.48 29.672C176.248 30.552 174.536 30.992 172.344 30.992ZM183.483 30.944C182.875 30.944 182.371 30.808 181.971 30.536C181.571 30.264 181.275 29.912 181.083 29.48C180.891 29.048 180.795 28.6 180.795 28.136C180.795 27.256 181.075 26.584 181.635 26.12C182.195 25.64 182.867 25.4 183.651 25.4C184.451 25.4 185.083 25.64 185.547 26.12C186.011 26.6 186.243 27.24 186.243 28.04C186.243 29.064 185.963 29.8 185.403 30.248C184.859 30.712 184.219 30.944 183.483 30.944ZM188.091 13.496C188.091 13.352 188.083 13.208 188.067 13.064C188.067 12.904 188.067 12.728 188.067 12.536C188.067 12.024 188.083 11.48 188.115 10.904C188.147 10.328 188.179 9.84 188.211 9.44L192.483 9.512C192.435 10.056 192.379 10.672 192.315 11.36C192.267 12.048 192.235 12.76 192.219 13.496H188.091ZM187.995 30.68C187.947 29.688 187.915 28.632 187.899 27.512C187.883 26.376 187.875 25.24 187.875 24.104C187.875 22.616 187.891 21.168 187.923 19.76C187.955 18.352 187.995 17.072 188.043 15.92L192.171 15.896C192.107 16.632 192.067 17.544 192.051 18.632C192.035 19.704 192.027 20.832 192.027 22.016C192.027 23.184 192.035 24.336 192.051 25.472C192.067 26.608 192.083 27.64 192.099 28.568C192.131 29.48 192.155 30.184 192.171 30.68H187.995ZM200.54 30.896C199.708 30.896 198.892 30.752 198.092 30.464C197.308 30.176 196.596 29.728 195.956 29.12C195.332 28.528 194.836 27.784 194.468 26.888C194.1 25.976 193.916 24.912 193.916 23.696C193.916 22.32 194.124 21.136 194.54 20.144C194.972 19.136 195.54 18.312 196.244 17.672C196.948 17.016 197.732 16.528 198.596 16.208C199.46 15.888 200.324 15.728 201.188 15.728C201.7 15.728 202.188 15.768 202.652 15.848C203.116 15.912 203.548 16.008 203.948 16.136C203.996 14.968 204.052 13.792 204.116 12.608C204.196 11.424 204.284 10.256 204.38 9.104L208.412 9.368C208.284 10.696 208.172 12.128 208.076 13.664C207.98 15.184 207.908 16.736 207.86 18.32C207.828 19.904 207.812 21.448 207.812 22.952C207.812 24.36 207.828 25.704 207.86 26.984C207.908 28.248 207.964 29.4 208.028 30.44L203.876 30.752C203.86 30.448 203.852 30.152 203.852 29.864C203.388 30.168 202.876 30.416 202.316 30.608C201.772 30.8 201.18 30.896 200.54 30.896ZM197.78 23.48C197.78 24.312 197.94 24.968 198.26 25.448C198.58 25.912 198.972 26.24 199.436 26.432C199.9 26.624 200.348 26.72 200.78 26.72C201.292 26.72 201.804 26.608 202.316 26.384C202.828 26.16 203.308 25.768 203.756 25.208C203.756 25.016 203.756 24.832 203.756 24.656C203.756 23.36 203.772 22.032 203.804 20.672C203.052 20.016 202.236 19.688 201.356 19.688C200.988 19.688 200.596 19.744 200.18 19.856C199.764 19.968 199.372 20.168 199.004 20.456C198.652 20.728 198.356 21.112 198.116 21.608C197.892 22.088 197.78 22.712 197.78 23.48Z" fill="#FB923C"/>
</svg>
