<svg width="34" height="36" viewBox="0 0 34 36" fill="none" xmlns="http://www.w3.org/2000/svg">
<mask id="mask0_17_122" style="mask-type:luminance" maskUnits="userSpaceOnUse" x="0" y="0" width="18" height="36">
<path d="M0 0H17.0062V36H0V0Z" fill="white"/>
</mask>
<g mask="url(#mask0_17_122)">
<path d="M12.4599 0.836113C5.22893 3.16537 0 9.94861 0 17.954C0 25.9594 5.22893 32.7426 12.4599 35.0719C13.8202 35.5117 15.2547 35.7929 16.7351 35.8952V23.3361L13.7256 20.0915L12.4599 18.7313L11.7389 17.954L12.4599 17.1793L13.7231 15.8165L16.7351 12.5719V0.0128174C15.2547 0.11509 13.8202 0.39634 12.4599 0.836113ZM12.4599 25.0159V30.2728C8.38163 28.4421 5.37723 24.6478 4.65362 20.0915H7.88814L8.82142 21.0963L12.4599 25.0159ZM12.4599 10.8921L8.82142 14.8117L7.88814 15.8165H4.65362C5.37723 11.2603 8.38163 7.46594 12.4599 5.63526V10.8921Z" fill="#60A5FA"/>
</g>
<mask id="mask1_17_122" style="mask-type:luminance" maskUnits="userSpaceOnUse" x="17" y="0" width="17" height="36">
<path d="M17.0061 0H33.0662V36H17.0061V0Z" fill="white"/>
</mask>
<g mask="url(#mask1_17_122)">
<path d="M29.4381 19.4113L27.8886 17.9539L29.4381 16.4991L30.1643 15.8164L33.2786 12.8914C32.849 11.4162 32.2328 10.0227 31.4606 8.73149C29.2847 5.0957 25.8584 2.29087 21.7775 0.912742C20.4172 0.455071 18.9828 0.153367 17.4998 0.0306396V35.8772C18.9828 35.7571 20.4172 35.4554 21.7775 34.9951C25.8584 33.617 29.2847 30.8122 31.4606 27.1764C32.2328 25.8852 32.849 24.4917 33.2786 23.019L30.1643 20.0914L29.4381 19.4113ZM21.7775 5.74257C24.5058 7.03377 26.7328 9.20962 28.0855 11.9019L24.764 15.0213L23.9177 15.8164H21.7775V5.74257ZM21.7775 30.1653V20.0914H23.9177L24.764 20.8866L28.0855 24.0059C26.7328 26.6983 24.5058 28.8767 21.7775 30.1653Z" fill="#FB923C"/>
</g>
</svg>
