<svg width="211" height="36" viewBox="0 0 211 36" fill="none" xmlns="http://www.w3.org/2000/svg">
<mask id="mask0_525_1389" style="mask-type:luminance" maskUnits="userSpaceOnUse" x="0" y="0" width="18" height="36">
<path d="M0 0H17.0062V36H0V0Z" fill="white"/>
</mask>
<g mask="url(#mask0_525_1389)">
<path d="M12.4599 0.836113C5.22893 3.16537 0 9.94861 0 17.954C0 25.9594 5.22893 32.7426 12.4599 35.0719C13.8202 35.5117 15.2547 35.7929 16.7351 35.8952V23.3361L13.7256 20.0915L12.4599 18.7313L11.7389 17.954L12.4599 17.1793L13.7231 15.8165L16.7351 12.5719V0.0128174C15.2547 0.11509 13.8202 0.39634 12.4599 0.836113ZM12.4599 25.0159V30.2728C8.38163 28.4421 5.37723 24.6478 4.65362 20.0915H7.88814L8.82142 21.0963L12.4599 25.0159ZM12.4599 10.8921L8.82142 14.8117L7.88814 15.8165H4.65362C5.37723 11.2603 8.38163 7.46594 12.4599 5.63526V10.8921Z" fill="#60A5FA"/>
</g>
<mask id="mask1_525_1389" style="mask-type:luminance" maskUnits="userSpaceOnUse" x="17" y="0" width="17" height="36">
<path d="M17.0063 0H33.0665V36H17.0063V0Z" fill="white"/>
</mask>
<g mask="url(#mask1_525_1389)">
<path d="M29.4383 19.4113L27.8888 17.9539L29.4383 16.4991L30.1645 15.8164L33.2788 12.8914C32.8493 11.4162 32.2331 10.0227 31.4609 8.73149C29.2849 5.0957 25.8586 2.29087 21.7778 0.912742C20.4175 0.455071 18.983 0.153367 17.5 0.0306396V35.8772C18.983 35.7571 20.4175 35.4554 21.7778 34.9951C25.8586 33.617 29.2849 30.8122 31.4609 27.1764C32.2331 25.8852 32.8493 24.4917 33.2788 23.019L30.1645 20.0914L29.4383 19.4113ZM21.7778 5.74257C24.506 7.03377 26.7331 9.20962 28.0857 11.9019L24.7642 15.0213L23.9179 15.8164H21.7778V5.74257ZM21.7778 30.1653V20.0914H23.9179L24.7642 20.8866L28.0857 24.0059C26.7331 26.6983 24.506 28.8767 21.7778 30.1653Z" fill="#FB923C"/>
</g>
<path d="M43.1304 30.656C43.1144 30.48 43.1064 30.288 43.1064 30.08C43.1064 29.872 43.1064 29.632 43.1064 29.36C43.1064 28.672 43.1224 27.856 43.1544 26.912C43.1864 25.952 43.2344 24.936 43.2984 23.864C43.3624 22.776 43.4264 21.688 43.4904 20.6C43.5544 19.496 43.6184 18.44 43.6824 17.432C43.7624 16.424 43.8344 15.52 43.8984 14.72C43.5464 14.832 43.2344 14.936 42.9624 15.032L42.3384 11C44.1464 10.488 45.8264 10.104 47.3784 9.848C48.9464 9.592 50.3624 9.464 51.6264 9.464C54.2024 9.464 56.1704 9.952 57.5304 10.928C58.8904 11.904 59.5704 13.32 59.5704 15.176C59.5704 16.232 59.3384 17.12 58.8744 17.84C58.4104 18.544 57.7544 19.128 56.9064 19.592C58.9864 20.648 60.0264 22.368 60.0264 24.752C60.0264 25.808 59.8264 26.696 59.4264 27.416C59.0424 28.12 58.5464 28.688 57.9384 29.12C57.3304 29.552 56.6824 29.872 55.9944 30.08C55.3224 30.304 54.6824 30.448 54.0744 30.512C53.4824 30.592 53.0184 30.632 52.6824 30.632C51.8504 30.632 50.9624 30.552 50.0184 30.392C49.0744 30.232 48.1544 29.992 47.2584 29.672C47.2584 29.992 47.2584 30.296 47.2584 30.584L43.1304 30.656ZM51.7224 13.472C51.1464 13.472 50.5384 13.504 49.8984 13.568C49.2744 13.616 48.6504 13.696 48.0264 13.808C47.9304 14.976 47.8344 16.336 47.7384 17.888C47.9464 17.904 48.1544 17.912 48.3624 17.912C48.5864 17.912 48.8104 17.912 49.0344 17.912C53.2584 17.912 55.3704 17.048 55.3704 15.32C55.3704 14.744 55.0424 14.296 54.3864 13.976C53.7464 13.64 52.8584 13.472 51.7224 13.472ZM49.5864 21.704C49.2504 21.704 48.9064 21.704 48.5544 21.704C48.2184 21.704 47.8744 21.712 47.5224 21.728C47.4904 22.432 47.4584 23.136 47.4264 23.84C47.4104 24.544 47.3864 25.24 47.3544 25.928C48.2504 26.2 49.1304 26.4 49.9944 26.528C50.8584 26.64 51.6024 26.696 52.2264 26.696C53.5544 26.696 54.5064 26.536 55.0824 26.216C55.6584 25.88 55.9464 25.336 55.9464 24.584C55.9464 23.656 55.3944 22.944 54.2904 22.448C53.2024 21.952 51.6344 21.704 49.5864 21.704ZM69.4586 30.92C67.9226 30.92 66.5706 30.616 65.4026 30.008C64.2506 29.416 63.3466 28.584 62.6906 27.512C62.0506 26.44 61.7306 25.2 61.7306 23.792C61.7306 22.944 61.8746 22.056 62.1626 21.128C62.4506 20.184 62.9146 19.304 63.5546 18.488C64.1946 17.672 65.0346 17.008 66.0746 16.496C67.1306 15.984 68.4106 15.728 69.9146 15.728C71.0026 15.728 71.9146 15.848 72.6506 16.088C73.4026 16.328 74.0106 16.64 74.4746 17.024C74.9546 17.408 75.3146 17.816 75.5546 18.248C75.8106 18.68 75.9786 19.096 76.0586 19.496C76.1546 19.88 76.2026 20.2 76.2026 20.456C76.2026 22.008 75.5466 23.208 74.2346 24.056C72.9386 24.888 71.0986 25.304 68.7146 25.304C68.1706 25.304 67.6506 25.28 67.1546 25.232C66.6746 25.184 66.2266 25.128 65.8106 25.064C66.1146 25.864 66.6186 26.456 67.3226 26.84C68.0266 27.208 68.7546 27.392 69.5066 27.392C70.5946 27.392 71.5546 27.2 72.3866 26.816C73.2186 26.416 74.0026 25.808 74.7386 24.992L76.8746 28.064C76.3626 28.48 75.7866 28.912 75.1466 29.36C74.5226 29.808 73.7546 30.176 72.8426 30.464C71.9306 30.768 70.8026 30.92 69.4586 30.92ZM69.9866 19.328C69.0426 19.328 68.2106 19.568 67.4906 20.048C66.7706 20.528 66.2426 21.16 65.9066 21.944C66.3066 22.008 66.6986 22.064 67.0826 22.112C67.4826 22.144 67.8746 22.16 68.2586 22.16C68.6106 22.16 69.0106 22.128 69.4586 22.064C69.9226 22 70.3706 21.904 70.8026 21.776C71.2506 21.648 71.6186 21.488 71.9066 21.296C72.1946 21.088 72.3386 20.848 72.3386 20.576C72.3386 20.448 72.2746 20.288 72.1466 20.096C72.0186 19.904 71.7866 19.728 71.4506 19.568C71.1146 19.408 70.6266 19.328 69.9866 19.328ZM83.414 30.896C82.534 30.896 81.806 30.704 81.23 30.32C80.67 29.952 80.222 29.44 79.886 28.784C79.566 28.128 79.326 27.376 79.166 26.528C79.022 25.68 78.926 24.776 78.878 23.816C78.846 22.84 78.83 21.864 78.83 20.888C78.83 20.04 78.854 19.112 78.902 18.104C78.95 17.08 79.006 16.048 79.07 15.008C79.15 13.952 79.23 12.96 79.31 12.032C79.406 11.104 79.494 10.296 79.574 9.608L83.918 9.656C83.79 10.472 83.67 11.4 83.558 12.44C83.446 13.464 83.35 14.504 83.27 15.56C83.206 16.616 83.15 17.592 83.102 18.488C83.07 19.384 83.054 20.096 83.054 20.624C83.054 22.08 83.078 23.224 83.126 24.056C83.19 24.888 83.278 25.48 83.39 25.832C83.518 26.168 83.686 26.336 83.894 26.336C84.166 26.336 84.462 26.168 84.782 25.832C85.102 25.48 85.414 25.088 85.718 24.656L87.758 28.712C87.262 29.256 86.67 29.752 85.982 30.2C85.294 30.664 84.438 30.896 83.414 30.896ZM89.748 13.496C89.748 13.352 89.74 13.208 89.724 13.064C89.724 12.904 89.724 12.728 89.724 12.536C89.724 12.024 89.74 11.48 89.772 10.904C89.804 10.328 89.836 9.84 89.868 9.44L94.14 9.512C94.092 10.056 94.036 10.672 93.972 11.36C93.924 12.048 93.892 12.76 93.876 13.496H89.748ZM89.652 30.68C89.604 29.688 89.572 28.632 89.556 27.512C89.54 26.376 89.532 25.24 89.532 24.104C89.532 22.616 89.548 21.168 89.58 19.76C89.612 18.352 89.652 17.072 89.7 15.92L93.828 15.896C93.764 16.632 93.724 17.544 93.708 18.632C93.692 19.704 93.684 20.832 93.684 22.016C93.684 23.184 93.692 24.336 93.708 25.472C93.724 26.608 93.74 27.64 93.756 28.568C93.788 29.48 93.812 30.184 93.828 30.68H89.652Z" fill="#60A5FA"/>
<path d="M97.0601 30.656C97.0441 30.48 97.0361 30.288 97.0361 30.08C97.0361 29.872 97.0361 29.632 97.0361 29.36C97.0361 28.672 97.0521 27.856 97.0841 26.912C97.1161 25.952 97.1641 24.936 97.2281 23.864C97.2921 22.776 97.3561 21.688 97.4201 20.6C97.4841 19.496 97.5481 18.44 97.6121 17.432C97.6921 16.424 97.7641 15.52 97.8281 14.72C97.4761 14.832 97.1641 14.936 96.8921 15.032L96.2681 11C98.0761 10.488 99.7561 10.104 101.308 9.848C102.876 9.592 104.292 9.464 105.556 9.464C108.132 9.464 110.1 9.952 111.46 10.928C112.82 11.904 113.5 13.32 113.5 15.176C113.5 16.232 113.268 17.12 112.804 17.84C112.34 18.544 111.684 19.128 110.836 19.592C112.916 20.648 113.956 22.368 113.956 24.752C113.956 25.808 113.756 26.696 113.356 27.416C112.972 28.12 112.476 28.688 111.868 29.12C111.26 29.552 110.612 29.872 109.924 30.08C109.252 30.304 108.612 30.448 108.004 30.512C107.412 30.592 106.948 30.632 106.612 30.632C105.78 30.632 104.892 30.552 103.948 30.392C103.004 30.232 102.084 29.992 101.188 29.672C101.188 29.992 101.188 30.296 101.188 30.584L97.0601 30.656ZM105.652 13.472C105.076 13.472 104.468 13.504 103.828 13.568C103.204 13.616 102.58 13.696 101.956 13.808C101.86 14.976 101.764 16.336 101.668 17.888C101.876 17.904 102.084 17.912 102.292 17.912C102.516 17.912 102.74 17.912 102.964 17.912C107.188 17.912 109.3 17.048 109.3 15.32C109.3 14.744 108.972 14.296 108.316 13.976C107.676 13.64 106.788 13.472 105.652 13.472ZM103.516 21.704C103.18 21.704 102.836 21.704 102.484 21.704C102.148 21.704 101.804 21.712 101.452 21.728C101.42 22.432 101.388 23.136 101.356 23.84C101.34 24.544 101.316 25.24 101.284 25.928C102.18 26.2 103.06 26.4 103.924 26.528C104.788 26.64 105.532 26.696 106.156 26.696C107.484 26.696 108.436 26.536 109.012 26.216C109.588 25.88 109.876 25.336 109.876 24.584C109.876 23.656 109.324 22.944 108.22 22.448C107.132 21.952 105.564 21.704 103.516 21.704ZM123.388 30.92C121.852 30.92 120.5 30.616 119.332 30.008C118.18 29.416 117.276 28.584 116.62 27.512C115.98 26.44 115.66 25.2 115.66 23.792C115.66 22.944 115.804 22.056 116.092 21.128C116.38 20.184 116.844 19.304 117.484 18.488C118.124 17.672 118.964 17.008 120.004 16.496C121.06 15.984 122.34 15.728 123.844 15.728C124.932 15.728 125.844 15.848 126.58 16.088C127.332 16.328 127.94 16.64 128.404 17.024C128.884 17.408 129.244 17.816 129.484 18.248C129.74 18.68 129.908 19.096 129.988 19.496C130.084 19.88 130.132 20.2 130.132 20.456C130.132 22.008 129.476 23.208 128.164 24.056C126.868 24.888 125.028 25.304 122.644 25.304C122.1 25.304 121.58 25.28 121.084 25.232C120.604 25.184 120.156 25.128 119.74 25.064C120.044 25.864 120.548 26.456 121.252 26.84C121.956 27.208 122.684 27.392 123.436 27.392C124.524 27.392 125.484 27.2 126.316 26.816C127.148 26.416 127.932 25.808 128.668 24.992L130.804 28.064C130.292 28.48 129.716 28.912 129.076 29.36C128.452 29.808 127.684 30.176 126.772 30.464C125.86 30.768 124.732 30.92 123.388 30.92ZM123.916 19.328C122.972 19.328 122.14 19.568 121.42 20.048C120.7 20.528 120.172 21.16 119.836 21.944C120.236 22.008 120.628 22.064 121.012 22.112C121.412 22.144 121.804 22.16 122.188 22.16C122.54 22.16 122.94 22.128 123.388 22.064C123.852 22 124.3 21.904 124.732 21.776C125.18 21.648 125.548 21.488 125.836 21.296C126.124 21.088 126.268 20.848 126.268 20.576C126.268 20.448 126.204 20.288 126.076 20.096C125.948 19.904 125.716 19.728 125.38 19.568C125.044 19.408 124.556 19.328 123.916 19.328ZM132.832 30.752C132.768 29.984 132.712 29 132.664 27.8C132.632 26.6 132.616 25.296 132.616 23.888C132.616 22.64 132.624 21.352 132.64 20.024C132.672 18.696 132.712 17.392 132.76 16.112C132.824 14.816 132.888 13.608 132.952 12.488C133.032 11.352 133.12 10.36 133.216 9.512L137.392 9.8C137.168 11.432 136.992 13.088 136.864 14.768C136.752 16.432 136.68 18.128 136.648 19.856C137.544 19.232 138.584 18.576 139.768 17.888C140.968 17.184 142.408 16.392 144.088 15.512L146.344 19.28C144.616 19.824 143.088 20.448 141.76 21.152C140.432 21.84 139.344 22.536 138.496 23.24C138.336 23.352 138.232 23.432 138.184 23.48C138.136 23.528 138.112 23.56 138.112 23.576C138.112 23.672 138.376 23.848 138.904 24.104C139.608 24.472 140.336 24.832 141.088 25.184C141.84 25.536 142.68 25.896 143.608 26.264C144.536 26.616 145.6 26.992 146.8 27.392L145.144 30.944C143.688 30.512 142.232 29.968 140.776 29.312C139.32 28.656 138 27.992 136.816 27.32C136.832 27.864 136.856 28.416 136.888 28.976C136.936 29.536 136.976 30.096 137.008 30.656L132.832 30.752ZM153.828 30.896C152.628 30.896 151.54 30.584 150.564 29.96C149.588 29.352 148.812 28.528 148.236 27.488C147.676 26.432 147.396 25.256 147.396 23.96C147.396 22.744 147.62 21.648 148.068 20.672C148.516 19.68 149.124 18.832 149.892 18.128C150.676 17.424 151.564 16.888 152.556 16.52C153.548 16.136 154.588 15.944 155.676 15.944C156.588 15.944 157.484 16.072 158.364 16.328C158.428 15.992 158.484 15.656 158.532 15.32L162.636 16.016C162.524 16.32 162.412 16.776 162.3 17.384C162.188 17.992 162.092 18.672 162.012 19.424C161.948 20.176 161.892 20.928 161.844 21.68C161.796 22.432 161.772 23.112 161.772 23.72C161.772 24.216 161.804 24.704 161.868 25.184C161.948 25.648 162.108 26.032 162.348 26.336C162.588 26.624 162.956 26.768 163.452 26.768H163.788L163.188 30.944C162.132 30.944 161.26 30.76 160.572 30.392C159.884 30.04 159.332 29.56 158.916 28.952C158.228 29.72 157.444 30.232 156.564 30.488C155.684 30.76 154.772 30.896 153.828 30.896ZM151.332 24.44C151.412 25.208 151.724 25.824 152.268 26.288C152.828 26.736 153.532 26.96 154.38 26.96C155.196 26.96 155.876 26.744 156.42 26.312C156.964 25.864 157.412 25.256 157.764 24.488C157.748 24.232 157.74 23.968 157.74 23.696C157.74 23.136 157.756 22.56 157.788 21.968C157.82 21.376 157.86 20.792 157.908 20.216C157.236 19.96 156.532 19.832 155.796 19.832C154.932 19.832 154.156 20.008 153.468 20.36C152.796 20.696 152.268 21.168 151.884 21.776C151.5 22.384 151.308 23.088 151.308 23.888C151.308 23.984 151.308 24.08 151.308 24.176C151.308 24.272 151.316 24.36 151.332 24.44ZM172.345 30.992C171.257 30.992 170.249 30.864 169.321 30.608C168.393 30.352 167.553 30.024 166.801 29.624C166.049 29.224 165.377 28.8 164.785 28.352L166.945 24.872C167.617 25.496 168.265 25.976 168.889 26.312C169.513 26.648 170.161 26.88 170.833 27.008C171.521 27.136 172.265 27.2 173.065 27.2C173.753 27.2 174.305 27.112 174.721 26.936C175.137 26.744 175.345 26.504 175.345 26.216C175.345 25.976 175.145 25.792 174.745 25.664C174.345 25.52 173.833 25.4 173.209 25.304C172.585 25.192 171.929 25.056 171.241 24.896C170.265 24.64 169.353 24.344 168.505 24.008C167.657 23.672 166.969 23.216 166.441 22.64C165.929 22.064 165.673 21.296 165.673 20.336C165.673 19.568 165.857 18.896 166.225 18.32C166.593 17.728 167.081 17.24 167.689 16.856C168.313 16.456 169.017 16.16 169.801 15.968C170.585 15.776 171.393 15.68 172.225 15.68C173.665 15.68 174.905 15.856 175.945 16.208C177.001 16.544 178.009 16.992 178.969 17.552L176.785 20.864C176.305 20.528 175.753 20.24 175.129 20C174.521 19.744 173.905 19.552 173.281 19.424C172.673 19.28 172.105 19.208 171.577 19.208C171.001 19.208 170.545 19.296 170.209 19.472C169.889 19.648 169.729 19.896 169.729 20.216C169.729 20.408 169.929 20.592 170.329 20.768C170.745 20.928 171.529 21.144 172.681 21.416C173.369 21.576 174.097 21.744 174.865 21.92C175.633 22.08 176.353 22.312 177.025 22.616C177.713 22.904 178.265 23.328 178.681 23.888C179.113 24.432 179.329 25.16 179.329 26.072C179.329 27.608 178.713 28.808 177.481 29.672C176.249 30.552 174.537 30.992 172.345 30.992ZM183.483 30.944C182.875 30.944 182.371 30.808 181.971 30.536C181.571 30.264 181.275 29.912 181.083 29.48C180.891 29.048 180.795 28.6 180.795 28.136C180.795 27.256 181.075 26.584 181.635 26.12C182.195 25.64 182.867 25.4 183.651 25.4C184.451 25.4 185.083 25.64 185.547 26.12C186.011 26.6 186.243 27.24 186.243 28.04C186.243 29.064 185.963 29.8 185.403 30.248C184.859 30.712 184.219 30.944 183.483 30.944ZM188.092 13.496C188.092 13.352 188.084 13.208 188.068 13.064C188.068 12.904 188.068 12.728 188.068 12.536C188.068 12.024 188.084 11.48 188.116 10.904C188.148 10.328 188.18 9.84 188.212 9.44L192.484 9.512C192.436 10.056 192.38 10.672 192.316 11.36C192.268 12.048 192.236 12.76 192.22 13.496H188.092ZM187.996 30.68C187.948 29.688 187.916 28.632 187.9 27.512C187.884 26.376 187.876 25.24 187.876 24.104C187.876 22.616 187.892 21.168 187.924 19.76C187.956 18.352 187.996 17.072 188.044 15.92L192.172 15.896C192.108 16.632 192.068 17.544 192.052 18.632C192.036 19.704 192.028 20.832 192.028 22.016C192.028 23.184 192.036 24.336 192.052 25.472C192.068 26.608 192.084 27.64 192.1 28.568C192.132 29.48 192.156 30.184 192.172 30.68H187.996ZM200.54 30.896C199.708 30.896 198.892 30.752 198.092 30.464C197.308 30.176 196.596 29.728 195.956 29.12C195.332 28.528 194.836 27.784 194.468 26.888C194.1 25.976 193.916 24.912 193.916 23.696C193.916 22.32 194.124 21.136 194.54 20.144C194.972 19.136 195.54 18.312 196.244 17.672C196.948 17.016 197.732 16.528 198.596 16.208C199.46 15.888 200.324 15.728 201.188 15.728C201.7 15.728 202.188 15.768 202.652 15.848C203.116 15.912 203.548 16.008 203.948 16.136C203.996 14.968 204.052 13.792 204.116 12.608C204.196 11.424 204.284 10.256 204.38 9.104L208.412 9.368C208.284 10.696 208.172 12.128 208.076 13.664C207.98 15.184 207.908 16.736 207.86 18.32C207.828 19.904 207.812 21.448 207.812 22.952C207.812 24.36 207.828 25.704 207.86 26.984C207.908 28.248 207.964 29.4 208.028 30.44L203.876 30.752C203.86 30.448 203.852 30.152 203.852 29.864C203.388 30.168 202.876 30.416 202.316 30.608C201.772 30.8 201.18 30.896 200.54 30.896ZM197.78 23.48C197.78 24.312 197.94 24.968 198.26 25.448C198.58 25.912 198.972 26.24 199.436 26.432C199.9 26.624 200.348 26.72 200.78 26.72C201.292 26.72 201.804 26.608 202.316 26.384C202.828 26.16 203.308 25.768 203.756 25.208C203.756 25.016 203.756 24.832 203.756 24.656C203.756 23.36 203.772 22.032 203.804 20.672C203.052 20.016 202.236 19.688 201.356 19.688C200.988 19.688 200.596 19.744 200.18 19.856C199.764 19.968 199.372 20.168 199.004 20.456C198.652 20.728 198.356 21.112 198.116 21.608C197.892 22.088 197.78 22.712 197.78 23.48Z" fill="#FB923C"/>
</svg>
